<?xml version="1.0" standalone="no"?>
<!DOCTYPE svg PUBLIC "-//W3C//DTD SVG 20010904//EN"
 "http://www.w3.org/TR/2001/REC-SVG-20010904/DTD/svg10.dtd">
<svg version="1.0" xmlns="http://www.w3.org/2000/svg"
 width="166.000000pt" height="62.000000pt" viewBox="0 0 166.000000 62.000000"
 preserveAspectRatio="xMidYMid meet">

<g transform="translate(0.000000,62.000000) scale(0.100000,-0.100000)"
fill="#000000" stroke="none">
<path d="M657 613 c-2 -5 -10 -52 -17 -105 l-12 -97 -25 16 c-18 12 -37 14
-78 9 -53 -6 -105 -23 -105 -35 1 -17 19 -31 33 -25 23 9 22 5 -22 -78 -55
-103 -77 -172 -63 -203 10 -22 17 -24 57 -21 112 8 246 157 232 258 -5 34 -4
36 14 25 26 -16 24 -46 -7 -118 -14 -34 -23 -68 -20 -76 3 -8 1 -11 -4 -8 -5
3 -12 -6 -16 -21 -6 -21 -2 -31 16 -46 12 -10 30 -33 39 -51 12 -24 24 -33 47
-35 46 -4 64 19 64 82 0 47 5 59 41 105 23 29 44 50 46 47 3 -2 -7 -32 -23
-65 -26 -60 -26 -62 -8 -82 12 -14 25 -18 41 -14 19 4 23 1 23 -18 0 -50 70
-76 103 -39 10 10 17 34 17 52 0 32 1 33 19 16 24 -22 50 -15 89 25 29 30 30
30 37 10 10 -32 50 -54 82 -46 48 12 89 51 127 125 25 47 41 69 48 62 7 -7 3
-26 -11 -57 -39 -89 -19 -156 37 -124 24 13 102 112 102 130 0 4 -6 9 -14 12
-10 4 -25 -11 -46 -43 -57 -89 -83 -94 -50 -9 25 68 25 83 0 100 -21 14 -21
14 5 76 30 76 31 94 4 119 -26 23 -44 13 -81 -47 -31 -51 -35 -95 -11 -121 15
-17 15 -21 -7 -69 -30 -62 -102 -132 -133 -127 -18 2 -23 10 -25 45 -3 42 -3
43 25 37 54 -11 116 70 91 119 -22 44 -85 9 -147 -81 -42 -62 -88 -109 -97
-100 -3 4 11 41 30 83 41 89 41 88 21 109 -14 13 -20 10 -55 -27 l-40 -42 2
40 c5 94 -3 335 -11 335 -23 0 -79 -50 -98 -90 -27 -51 -29 -97 -9 -164 11
-34 11 -46 3 -43 -7 2 -30 -18 -52 -44 -48 -57 -60 -61 -40 -13 18 45 19 64 2
64 -7 0 -19 -17 -27 -37 l-14 -38 -7 40 c-6 36 -4 43 23 70 30 30 31 31 25
110 -8 104 -17 147 -31 142 -6 -2 -12 -30 -14 -63 -1 -32 -5 -66 -8 -74 -9
-26 -24 10 -24 62 0 103 -26 105 -35 3 -4 -41 -11 -75 -15 -75 -4 0 -11 34
-15 75 -6 67 -15 90 -28 68z m351 -175 c-3 -127 -6 -149 -28 -193 l-24 -50 -4
34 c-2 20 2 39 11 48 12 12 10 21 -10 61 -20 39 -24 58 -21 114 3 58 8 71 33
98 16 16 33 30 38 30 5 0 7 -64 5 -142z m-308 2 c10 0 22 4 25 10 4 6 13 5 25
-2 15 -10 23 -9 39 6 21 19 21 19 21 -11 0 -16 -6 -38 -14 -48 -13 -18 -14
-18 -25 3 -16 30 -26 28 -41 -8 -15 -36 -17 -36 -47 -8 -16 15 -23 33 -23 57
1 29 2 33 11 19 5 -10 19 -18 29 -18z m727 -66 c-14 -32 -30 -60 -36 -62 -14
-5 -14 33 0 61 14 27 51 68 56 63 2 -2 -7 -30 -20 -62z m-827 16 c55 -29 43
-102 -28 -182 -46 -50 -133 -108 -165 -108 -14 0 -16 5 -11 27 10 43 58 141
103 211 42 64 61 74 101 52z m153 -123 c6 -64 -5 -100 -39 -127 -15 -13 -16
-10 -9 40 4 30 11 64 15 76 5 11 4 27 -1 36 -12 21 -1 48 15 42 8 -3 16 -30
19 -67z m516 -33 c-22 -24 -49 -32 -49 -15 0 5 14 24 32 42 28 29 33 31 36 16
2 -11 -6 -30 -19 -43z m-212 -56 c-24 -50 -25 -51 -26 -22 -1 29 35 91 46 80
3 -2 -6 -29 -20 -58z m-156 -41 c-31 -31 -34 -16 -9 44 l23 54 3 -39 c3 -29
-2 -44 -17 -59z m-224 -9 c-3 -8 -6 -5 -6 6 -1 11 2 17 5 13 3 -3 4 -12 1 -19z
m329 -73 c-7 -28 -31 -38 -57 -25 -19 11 -27 40 -10 40 4 0 21 19 37 43 l29
42 3 -39 c2 -22 1 -49 -2 -61z m-271 25 c5 -8 11 -7 21 1 11 9 14 7 14 -14 0
-29 -29 -51 -54 -41 -16 6 -22 45 -9 57 9 10 21 9 28 -3z"/>
<path d="M226 487 c-20 -24 -36 -48 -36 -53 0 -5 11 5 25 21 l25 30 -15 -50
c-8 -27 -15 -51 -15 -52 0 -2 12 -2 28 -2 15 1 20 3 10 6 -15 4 -15 9 2 71 10
37 17 68 15 70 -1 2 -19 -17 -39 -41z"/>
<path d="M102 504 c-22 -15 -31 -64 -12 -64 6 0 8 10 4 24 -4 18 -1 27 14 35
34 18 45 14 38 -16 -13 -57 -29 -83 -52 -89 -25 -7 -33 -24 -11 -24 19 0 52
39 65 75 10 30 10 29 11 -14 1 -38 3 -42 16 -31 9 7 13 20 11 29 -2 9 -7 33
-11 54 -5 30 -10 37 -28 37 -13 0 -33 -7 -45 -16z"/>
<path d="M280 465 c-11 -13 -10 -14 3 -9 19 7 37 -23 37 -63 0 -35 -16 -53
-47 -53 -13 0 -23 -4 -23 -10 0 -20 37 -9 63 18 42 44 73 132 46 132 -6 0 -9
-8 -6 -19 2 -10 0 -26 -6 -36 -9 -16 -11 -14 -21 15 -13 39 -28 47 -46 25z"/>
<path d="M1590 120 c-10 -18 -9 -25 3 -37 13 -14 16 -13 27 7 10 18 9 25 -3
37 -13 14 -16 13 -27 -7z"/>
</g>
</svg>
